<svg width="117" height="24" viewBox="0 0 117 24" fill="none" xmlns="http://www.w3.org/2000/svg">
<path d="M49.8104 3.4382H46.5935L40.5197 16.7792L34.4234 3.4382H31.139V19.4841H33.3886V6.41815L39.3274 19.4841H41.577L47.5608 6.30354V19.4841H49.8104V3.4382Z" fill="#231F20"/>
<path d="M90.5651 3.4382L86.8758 16.7563L82.4892 3.4382H79.9247L75.493 16.7563L71.8487 3.4382H69.3517L73.9633 19.4841H76.8203L81.1169 6.464L85.3911 19.4841H88.338L92.9721 3.4382H90.5651Z" fill="#231F20"/>
<path d="M61.6582 8.02274L57.879 16.8251L53.8522 8.02274H51.3552L56.8217 19.2778L56.4842 20.0801C56.1918 20.7678 55.7869 21.3638 54.8645 21.3638C54.2122 21.3638 53.9872 21.3638 53.3573 21.3179V23.381C53.6498 23.4039 54.3022 23.4268 54.9995 23.4268C57.2041 23.4268 57.9914 21.9827 58.4414 20.7678L63.9078 8.02274H61.6582Z" fill="#231F20"/>
<path d="M103.398 17.4211C103.038 17.4211 102.813 17.1919 102.813 16.8022V12.401C102.813 9.32939 100.631 7.79357 97.9316 7.79357C95.3446 7.79357 93.32 9.30647 92.8925 11.4383H95.1646C95.5695 10.2692 96.8068 9.71908 97.8191 9.71908C99.5287 9.71908 100.564 10.3609 100.564 11.3924C100.564 11.9655 100.384 12.3552 98.179 12.6073L96.9193 12.7449C94.2198 13.0429 92.8026 14.5328 92.8026 16.3437C92.8026 18.338 94.1298 19.7134 96.6268 19.7134C98.3365 19.7134 99.9337 18.9569 100.878 17.8337C100.991 18.8882 101.643 19.4841 102.746 19.4841H103.825V17.4211H103.398ZM96.8518 17.8337C95.6145 17.8337 94.9171 17.2148 94.9171 16.3208C94.9171 15.4727 95.3446 14.6933 97.1667 14.487L98.4265 14.3495C99.6862 14.2119 100.384 13.9369 100.856 13.5701V14.6016C100.856 16.3437 98.9888 17.8337 96.8518 17.8337Z" fill="#231F20"/>
<path d="M113.891 8.0228L110.112 16.8251L106.085 8.0228H103.588L109.055 19.2778L108.717 20.0801C108.425 20.7678 108.02 21.3638 107.097 21.3638C106.445 21.3638 106.22 21.3638 105.59 21.318V23.381C105.883 23.4039 106.535 23.4268 107.232 23.4268C109.437 23.4268 110.224 21.9827 110.674 20.7678L116.141 8.0228H113.891Z" fill="#231F20"/>
<path fill-rule="evenodd" clip-rule="evenodd" d="M30.5767 2.86523H34.7819L40.5188 15.4196L46.2345 2.86523H50.3728V20.0573H46.9985V8.90732L41.9365 20.0573H38.9682L33.951 9.01913V20.0573H30.5767V2.86523ZM31.7014 4.01137V18.9111H32.8262V6.41825L33.8989 6.17741L39.6868 18.9111H41.2175L47.0504 6.06303L48.1232 6.30364V18.9111H49.248V4.01137H46.9526L40.5207 18.139L34.0649 4.01137H31.7014ZM68.601 2.86523H72.2758L75.5455 14.8143L79.5215 2.86523H82.8937L86.8294 14.8144L90.1395 2.86523H93.7239L88.7588 20.0573H84.9862L81.1156 8.26631L77.2245 20.0573H73.542L68.601 2.86523ZM70.1025 4.01137L74.3847 18.9111H76.4161L81.1184 4.66189L85.796 18.9111H87.9173L92.2204 4.01137H90.9907L86.9222 18.6984L82.0847 4.01137H80.3278L75.4406 18.6985L71.4217 4.01137H70.1025ZM92.3416 11.3237C92.8342 8.8667 95.1405 7.2206 97.9316 7.2206C99.3803 7.2206 100.741 7.6326 101.75 8.50965C102.77 9.39739 103.376 10.7152 103.376 12.4011V16.8023C103.376 16.8216 103.377 16.8364 103.378 16.8474C103.384 16.8478 103.39 16.8481 103.398 16.8481H104.388V20.0573H102.746C102.096 20.0573 101.513 19.8804 101.071 19.4857C100.88 19.3155 100.727 19.1153 100.609 18.892C99.5551 19.7555 98.1246 20.2865 96.6268 20.2865C95.2803 20.2865 94.1755 19.9149 93.4012 19.2016C92.6208 18.4828 92.2402 17.4757 92.2402 16.3438C92.2402 15.2745 92.6632 14.2952 93.4718 13.5516C94.2728 12.8151 95.4236 12.3337 96.8587 12.1752L98.1163 12.0379C98.1168 12.0379 98.1173 12.0378 98.1178 12.0378C99.2225 11.9113 99.7017 11.7584 99.9037 11.632C99.9461 11.6055 99.966 11.586 99.9743 11.5768C99.9815 11.5686 99.9835 11.5644 99.9847 11.5614C99.9895 11.55 100.001 11.5136 100.001 11.3925C100.001 11.1086 99.8735 10.8628 99.5427 10.6602C99.1894 10.4437 98.6164 10.2922 97.8191 10.2922C96.9512 10.2922 95.9932 10.768 95.6949 11.6291L95.5625 12.0114H92.2037L92.3416 11.3237ZM93.6561 10.8653H94.798C95.419 9.6621 96.7677 9.14611 97.8191 9.14611C98.7315 9.14611 99.5307 9.31554 100.122 9.67789C100.736 10.0541 101.126 10.645 101.126 11.3925C101.126 11.558 101.115 11.7852 101.017 12.0159C100.913 12.2622 100.735 12.4571 100.492 12.6087C100.053 12.8834 99.3406 13.0512 98.2418 13.1769L98.2389 13.1772L96.9798 13.3147C96.9797 13.3147 96.98 13.3147 96.9798 13.3147C95.7157 13.4543 94.8078 13.8669 94.2254 14.4025C93.6506 14.9311 93.365 15.6023 93.365 16.3438C93.365 17.2062 93.648 17.884 94.1554 18.3514C94.669 18.8244 95.4764 19.1404 96.6268 19.1404C98.1846 19.1404 99.6213 18.4479 100.452 17.4609L101.297 16.4555L101.438 17.7719C101.482 18.1911 101.626 18.4578 101.811 18.6232C101.998 18.7901 102.293 18.9112 102.746 18.9112H103.263V17.9875C103.009 17.9616 102.761 17.8604 102.568 17.6575C102.341 17.4204 102.251 17.109 102.251 16.8023V12.4011C102.251 11.0154 101.765 10.0295 101.02 9.38142C100.262 8.72265 99.1823 8.36674 97.9316 8.36674C95.8617 8.36674 94.2748 9.40773 93.6561 10.8653ZM50.4494 7.44977H54.2106L57.8627 15.4333L61.2904 7.44977H64.7674L58.9624 20.9841C58.7284 21.6134 58.3833 22.3693 57.7663 22.968C57.1269 23.5883 56.2375 24 54.9995 24C54.2953 24 53.627 23.9769 53.3142 23.9524L52.795 23.9117V20.7025L53.3974 20.7464C54.0073 20.7908 54.217 20.7908 54.8633 20.7908H54.8646C55.191 20.7908 55.3863 20.6914 55.5318 20.5563C55.6958 20.404 55.8317 20.1731 55.9679 19.853C55.968 19.8528 55.9678 19.8533 55.9679 19.853L56.2026 19.2951L50.4494 7.44977ZM52.2611 8.59591L57.4408 19.2606L57.0012 20.3059L57.0003 20.308C56.8441 20.6752 56.6314 21.0859 56.2894 21.4035C55.9288 21.7383 55.4604 21.9369 54.8646 21.9369C54.454 21.9369 54.2061 21.9369 53.9197 21.9254V22.8358C54.2223 22.8463 54.6019 22.8538 54.9995 22.8538C55.9662 22.8538 56.5727 22.5434 56.9906 22.1379C57.4263 21.7152 57.6993 21.1484 57.9152 20.5655L57.9203 20.5518L63.0483 8.59591H62.0261L57.8952 18.2171L53.4939 8.59591H52.2611ZM102.682 7.44983H106.444L110.096 15.4333L113.523 7.44983H117L111.195 20.9841C110.961 21.6133 110.616 22.3694 109.999 22.9681C109.36 23.5884 108.47 24 107.232 24C106.528 24 105.86 23.977 105.547 23.9525L105.028 23.9118V20.7026L105.63 20.7465C106.24 20.7908 106.45 20.7908 107.096 20.7908H107.097C107.424 20.7908 107.619 20.6915 107.765 20.5563C107.929 20.4041 108.065 20.1733 108.201 19.8533C108.201 19.853 108.201 19.8536 108.201 19.8533L108.435 19.2952L102.682 7.44983ZM104.494 8.59597L109.674 19.2607L109.234 20.306L109.233 20.3081C109.077 20.6753 108.864 21.086 108.522 21.4036C108.162 21.7383 107.693 21.937 107.097 21.937C106.687 21.937 106.439 21.937 106.153 21.9254V22.8358C106.455 22.8463 106.835 22.8539 107.232 22.8539C108.199 22.8539 108.806 22.5435 109.224 22.138C109.659 21.7153 109.932 21.1485 110.148 20.5656L110.153 20.5519L115.281 8.59597H114.259L110.128 18.2171L105.727 8.59597H104.494ZM101.418 12.4131V14.6017C101.418 15.6908 100.836 16.6515 100.004 17.3209C99.1691 17.9922 98.0449 18.4069 96.8518 18.4069C96.1475 18.4069 95.5273 18.2311 95.0706 17.8612C94.6006 17.4806 94.3548 16.9337 94.3548 16.3209C94.3548 15.7943 94.4912 15.2165 94.9696 14.7495C95.4304 14.2997 96.1338 14.0275 97.1046 13.9175L97.1068 13.9173L98.3666 13.7798C99.575 13.6478 100.157 13.3922 100.515 13.1144L101.418 12.4131ZM100.294 14.525C99.8196 14.7069 99.2341 14.8377 98.4864 14.9194L97.2288 15.0567C97.2284 15.0567 97.2281 15.0567 97.2277 15.0568C96.3771 15.1532 95.956 15.3738 95.7477 15.5771C95.5568 15.7635 95.4796 15.9994 95.4796 16.3209C95.4796 16.6021 95.5824 16.8117 95.7704 16.964C95.9717 17.127 96.3188 17.2607 96.8518 17.2607C97.7958 17.2607 98.6737 16.9305 99.3069 16.4212C99.9423 15.9101 100.294 15.2547 100.294 14.6017V14.525Z" fill="#231F20"/>
<path d="M18.9806 6.83275L11.4161 1.09352C10.565 0.447748 9.38711 0.450818 8.53935 1.10102C7.31028 2.04366 7.29999 3.89228 8.51848 4.84855L15.9881 10.7107C17.5953 11.972 19.9494 10.827 19.9494 8.78394C19.9494 8.01781 19.5909 7.29582 18.9806 6.83275Z" fill="#44BE93"/>
<path d="M5.45855 9.54215L3.98123 10.6702C2.35067 11.9152 0 10.7525 0 8.70094C0 7.91898 0.369146 7.18291 0.995846 6.71525L2.48553 5.6036C3.36428 4.94785 4.57034 4.95066 5.44602 5.61049C6.75084 6.59368 6.75708 8.55066 5.45855 9.54215Z" fill="#44BE93"/>
<path d="M11.4388 14.0846L3.8564 19.8701C2.2766 21.0755 0 19.949 0 17.9618C0 17.2168 0.345906 16.5141 0.936258 16.0597L8.49421 10.2423C9.36632 9.57101 10.5815 9.5726 11.4519 10.2461C12.7094 11.2193 12.7029 13.12 11.4388 14.0846Z" fill="#44BE93"/>
<path d="M19.0066 16.0509L17.4669 14.8594C16.5918 14.1821 15.3694 14.1821 14.4942 14.8594C13.2378 15.8317 13.2378 17.7286 14.4942 18.7009L16.0339 19.8924C17.63 21.1276 19.9489 19.9899 19.9489 17.9717C19.9489 17.2201 19.601 16.5109 19.0066 16.0509Z" fill="#44BE93"/>
<path d="M9.97435 22.9227C11.9056 22.9227 12.7461 20.4807 11.224 19.292C10.4896 18.7185 9.4591 18.7185 8.72471 19.292C7.20258 20.4807 8.0431 22.9227 9.97435 22.9227Z" fill="#44BE93"/>
</svg>
